<svg width="49" height="40" viewBox="0 0 49 40" fill="none" xmlns="http://www.w3.org/2000/svg">
<path d="M1 5.66667C1 5.66667 4.5 1 12.6667 1C20.8333 1 24.3333 5.66667 24.3333 5.66667V38.3333C24.3333 38.3333 20.8333 36 12.6667 36C4.5 36 1 38.3333 1 38.3333V5.66667ZM24.3333 5.66667C24.3333 5.66667 27.8333 1 36 1C44.1667 1 47.6667 5.66667 47.6667 5.66667V38.3333C47.6667 38.3333 44.1667 36 36 36C27.8333 36 24.3333 38.3333 24.3333 38.3333V5.66667Z" fill="#F2EDF1"/>
<path d="M24.3333 5.66667C24.3333 5.66667 20.8333 1 12.6667 1C4.5 1 1 5.66667 1 5.66667V38.3333C1 38.3333 4.5 36 12.6667 36C20.8333 36 24.3333 38.3333 24.3333 38.3333M24.3333 5.66667V38.3333M24.3333 5.66667C24.3333 5.66667 27.8333 1 36 1C44.1667 1 47.6667 5.66667 47.6667 5.66667V38.3333C47.6667 38.3333 44.1667 36 36 36C27.8333 36 24.3333 38.3333 24.3333 38.3333" stroke="black" stroke-width="2" stroke-linecap="round" stroke-linejoin="round"/>
</svg>
