<svg width="35" height="35" viewBox="0 0 35 35" fill="none" xmlns="http://www.w3.org/2000/svg">
<path fill-rule="evenodd" clip-rule="evenodd" d="M29.8202 20.1647C30.8546 19.9033 32.7332 19.8562 34.0596 21.4546C35.0939 22.7027 35.0306 24.1302 34.9725 24.6967C34.8353 26.0232 34.1985 27.3637 33.4562 28.3049C29.4403 33.3947 22.5571 35.6433 16.1383 34.8414C6.03424 33.5812 -1.12688 24.4405 0.146676 14.4283C0.538946 11.3448 1.44838 8.58026 3.12652 6.23408C4.81698 3.86873 7.1231 2.16051 9.92352 0.943847C11.0114 0.483161 12.1598 0.177978 13.3343 0.0374472C13.651 0.00607184 14.038 -0.0148454 14.4566 0.0130438C14.8243 0.0374469 15.4892 0.117629 16.1858 0.46973C16.7102 0.731366 17.1667 1.10937 17.5197 1.57434C17.8727 2.03932 18.1127 2.57871 18.221 3.15058C18.4479 4.37073 18.017 5.33988 17.7619 5.80354C17.4541 6.36133 17.016 7.26424 16.6361 8.20202C16.228 9.20603 16.0099 9.95555 15.9676 10.3059C15.657 12.7486 16.3384 15.2136 17.8618 17.1586C19.3852 19.1036 21.6259 20.3692 24.091 20.6772C24.5008 20.7295 25.544 20.7121 26.8896 20.5901C28.1878 20.468 29.3242 20.2885 29.8202 20.1647ZM31.1571 25.3853C31.6215 24.3969 31.6866 23.2918 30.6857 23.5428C30.0683 23.6997 29.0621 23.8601 27.9732 23.9821L27.9292 23.9873C26.3549 24.1616 24.6187 24.2575 23.6512 24.1355C20.2602 23.7122 17.1778 21.9715 15.0821 19.2962C12.9863 16.621 12.0488 13.2303 12.4759 9.87014C12.5709 9.11713 12.8875 8.12706 13.2728 7.14571L13.3924 6.84939C13.8163 5.80877 14.3036 4.80476 14.6712 4.13542C15.0107 3.52186 14.3827 3.41204 13.5419 3.52534C12.5096 3.67872 11.5107 4.00279 10.5867 4.48403C6.42827 6.53389 4.2787 9.8039 3.63665 14.8623C3.39166 16.7889 3.53202 18.7444 4.04971 20.6172C4.5674 22.49 5.45228 24.2435 6.65384 25.7774C7.8554 27.3114 9.3501 28.5958 11.0526 29.5573C12.7551 30.5189 14.632 31.1387 16.5763 31.3814C21.4471 31.988 26.4516 30.4785 29.6848 27.273C30.0411 26.9217 30.3753 26.5492 30.6857 26.1574C30.8651 25.9308 31.0269 25.6642 31.1571 25.3853Z" fill="#DAEAFF"/>
<g clip-path="url(#clip0_208_22)">
<path fill-rule="evenodd" clip-rule="evenodd" d="M25.4082 3.60422L23.9999 0.410889L22.5916 3.60422L19.397 5.01256L22.5916 6.42089L23.9999 9.61589L25.4082 6.42089L28.6028 5.01256L25.4082 3.60422Z" fill="#DAEAFF"/>
</g>
<g clip-path="url(#clip1_208_22)">
<path fill-rule="evenodd" clip-rule="evenodd" d="M32.2044 8.80211L31.5002 7.20544L30.796 8.80211L29.1987 9.50628L30.796 10.2104L31.5002 11.8079L32.2044 10.2104L33.8016 9.50628L32.2044 8.80211Z" fill="#DAEAFF"/>
</g>
<defs>
<clipPath id="clip0_208_22">
<rect width="10" height="10" fill="white" transform="translate(19)"/>
</clipPath>
<clipPath id="clip1_208_22">
<rect width="5" height="5" fill="white" transform="translate(29 7)"/>
</clipPath>
</defs>
</svg>
