<svg width="35" height="35" viewBox="0 0 35 35" fill="none" xmlns="http://www.w3.org/2000/svg">
<path d="M16.3333 4.66667V1.16667C16.3333 0.857247 16.4562 0.560501 16.675 0.341709C16.8938 0.122916 17.1906 0 17.5 0C17.8094 0 18.1062 0.122916 18.325 0.341709C18.5438 0.560501 18.6667 0.857247 18.6667 1.16667V4.66667C18.6667 4.97609 18.5438 5.27283 18.325 5.49162C18.1062 5.71042 17.8094 5.83333 17.5 5.83333C17.1906 5.83333 16.8938 5.71042 16.675 5.49162C16.4562 5.27283 16.3333 4.97609 16.3333 4.66667ZM26.8333 17.5C26.8333 19.346 26.2859 21.1505 25.2604 22.6853C24.2348 24.2202 22.7772 25.4165 21.0717 26.1229C19.3663 26.8293 17.4896 27.0141 15.6792 26.654C13.8687 26.2939 12.2056 25.405 10.9003 24.0997C9.59505 22.7944 8.70613 21.1313 8.346 19.3208C7.98588 17.5104 8.17071 15.6337 8.87712 13.9283C9.58354 12.2228 10.7798 10.7652 12.3147 9.73962C13.8495 8.71406 15.654 8.16667 17.5 8.16667C19.9745 8.16937 22.3469 9.15357 24.0967 10.9033C25.8464 12.6531 26.8306 15.0255 26.8333 17.5ZM24.5 17.5C24.5 16.1155 24.0895 14.7622 23.3203 13.611C22.5511 12.4599 21.4579 11.5627 20.1788 11.0328C18.8997 10.503 17.4922 10.3644 16.1344 10.6345C14.7765 10.9046 13.5292 11.5713 12.5503 12.5503C11.5713 13.5292 10.9046 14.7765 10.6345 16.1344C10.3644 17.4922 10.503 18.8997 11.0328 20.1788C11.5627 21.4579 12.4599 22.5511 13.611 23.3203C14.7622 24.0895 16.1155 24.5 17.5 24.5C19.3559 24.4981 21.1353 23.76 22.4476 22.4476C23.76 21.1353 24.4981 19.3559 24.5 17.5ZM7.34125 8.99208C7.56016 9.211 7.85708 9.33398 8.16667 9.33398C8.47626 9.33398 8.77317 9.211 8.99208 8.99208C9.211 8.77317 9.33398 8.47626 9.33398 8.16667C9.33398 7.85708 9.211 7.56016 8.99208 7.34125L6.65875 5.00792C6.43984 4.789 6.14292 4.66602 5.83333 4.66602C5.52374 4.66602 5.22683 4.789 5.00792 5.00792C4.789 5.22683 4.66602 5.52374 4.66602 5.83333C4.66602 6.14292 4.789 6.43984 5.00792 6.65875L7.34125 8.99208ZM7.34125 26.0079L5.00792 28.3412C4.789 28.5602 4.66602 28.8571 4.66602 29.1667C4.66602 29.4763 4.789 29.7732 5.00792 29.9921C5.22683 30.211 5.52374 30.334 5.83333 30.334C6.14292 30.334 6.43984 30.211 6.65875 29.9921L8.99208 27.6588C9.10048 27.5504 9.18646 27.4217 9.24513 27.28C9.30379 27.1384 9.33398 26.9866 9.33398 26.8333C9.33398 26.68 9.30379 26.5282 9.24513 26.3866C9.18646 26.245 9.10048 26.1163 8.99208 26.0079C8.88369 25.8995 8.755 25.8135 8.61338 25.7549C8.47175 25.6962 8.31996 25.666 8.16667 25.666C8.01337 25.666 7.86158 25.6962 7.71995 25.7549C7.57833 25.8135 7.44965 25.8995 7.34125 26.0079ZM26.8333 9.33333C26.9866 9.33345 27.1384 9.30338 27.28 9.24483C27.4216 9.18627 27.5503 9.10039 27.6588 8.99208L29.9921 6.65875C30.211 6.43984 30.334 6.14292 30.334 5.83333C30.334 5.52374 30.211 5.22683 29.9921 5.00792C29.7732 4.789 29.4763 4.66602 29.1667 4.66602C28.8571 4.66602 28.5602 4.789 28.3412 5.00792L26.0079 7.34125C25.8446 7.50441 25.7333 7.71238 25.6882 7.93881C25.6431 8.16524 25.6662 8.39996 25.7546 8.61326C25.843 8.82655 25.9927 9.00882 26.1847 9.13701C26.3767 9.26519 26.6025 9.33352 26.8333 9.33333ZM27.6588 26.0079C27.4398 25.789 27.1429 25.666 26.8333 25.666C26.5237 25.666 26.2268 25.789 26.0079 26.0079C25.789 26.2268 25.666 26.5237 25.666 26.8333C25.666 27.1429 25.789 27.4398 26.0079 27.6588L28.3412 29.9921C28.4496 30.1005 28.5783 30.1865 28.72 30.2451C28.8616 30.3038 29.0134 30.334 29.1667 30.334C29.32 30.334 29.4718 30.3038 29.6134 30.2451C29.755 30.1865 29.8837 30.1005 29.9921 29.9921C30.1005 29.8837 30.1865 29.755 30.2451 29.6134C30.3038 29.4718 30.334 29.32 30.334 29.1667C30.334 29.0134 30.3038 28.8616 30.2451 28.72C30.1865 28.5783 30.1005 28.4496 29.9921 28.3412L27.6588 26.0079ZM5.83333 17.5C5.83333 17.1906 5.71042 16.8938 5.49162 16.675C5.27283 16.4562 4.97609 16.3333 4.66667 16.3333H1.16667C0.857247 16.3333 0.560501 16.4562 0.341709 16.675C0.122916 16.8938 0 17.1906 0 17.5C0 17.8094 0.122916 18.1062 0.341709 18.325C0.560501 18.5438 0.857247 18.6667 1.16667 18.6667H4.66667C4.97609 18.6667 5.27283 18.5438 5.49162 18.325C5.71042 18.1062 5.83333 17.8094 5.83333 17.5ZM17.5 29.1667C17.1906 29.1667 16.8938 29.2896 16.675 29.5084C16.4562 29.7272 16.3333 30.0239 16.3333 30.3333V33.8333C16.3333 34.1427 16.4562 34.4395 16.675 34.6583C16.8938 34.8771 17.1906 35 17.5 35C17.8094 35 18.1062 34.8771 18.325 34.6583C18.5438 34.4395 18.6667 34.1427 18.6667 33.8333V30.3333C18.6667 30.0239 18.5438 29.7272 18.325 29.5084C18.1062 29.2896 17.8094 29.1667 17.5 29.1667ZM33.8333 16.3333H30.3333C30.0239 16.3333 29.7272 16.4562 29.5084 16.675C29.2896 16.8938 29.1667 17.1906 29.1667 17.5C29.1667 17.8094 29.2896 18.1062 29.5084 18.325C29.7272 18.5438 30.0239 18.6667 30.3333 18.6667H33.8333C34.1427 18.6667 34.4395 18.5438 34.6583 18.325C34.8771 18.1062 35 17.8094 35 17.5C35 17.1906 34.8771 16.8938 34.6583 16.675C34.4395 16.4562 34.1427 16.3333 33.8333 16.3333Z" fill="black"/>
</svg>
