<svg width="36" height="36" viewBox="0 0 36 36" fill="none" xmlns="http://www.w3.org/2000/svg">
<g clip-path="url(#clip0_96_164)">
<path d="M17.3333 5.66667V2.16667C17.3333 1.85725 17.4562 1.5605 17.675 1.34171C17.8938 1.12292 18.1906 1 18.5 1C18.8094 1 19.1062 1.12292 19.325 1.34171C19.5438 1.5605 19.6667 1.85725 19.6667 2.16667V5.66667C19.6667 5.97609 19.5438 6.27283 19.325 6.49162C19.1062 6.71042 18.8094 6.83333 18.5 6.83333C18.1906 6.83333 17.8938 6.71042 17.675 6.49162C17.4562 6.27283 17.3333 5.97609 17.3333 5.66667ZM27.8333 18.5C27.8333 20.346 27.2859 22.1505 26.2604 23.6853C25.2348 25.2202 23.7772 26.4165 22.0717 27.1229C20.3663 27.8293 18.4896 28.0141 16.6792 27.654C14.8687 27.2939 13.2056 26.405 11.9003 25.0997C10.595 23.7944 9.70613 22.1313 9.346 20.3208C8.98588 18.5104 9.17071 16.6337 9.87712 14.9283C10.5835 13.2228 11.7798 11.7652 13.3147 10.7396C14.8495 9.71406 16.654 9.16667 18.5 9.16667C20.9745 9.16937 23.3469 10.1536 25.0967 11.9033C26.8464 13.6531 27.8306 16.0255 27.8333 18.5ZM25.5 18.5C25.5 17.1155 25.0895 15.7622 24.3203 14.611C23.5511 13.4599 22.4579 12.5627 21.1788 12.0328C19.8997 11.503 18.4922 11.3644 17.1344 11.6345C15.7765 11.9046 14.5292 12.5713 13.5503 13.5503C12.5713 14.5292 11.9046 15.7765 11.6345 17.1344C11.3644 18.4922 11.503 19.8997 12.0328 21.1788C12.5627 22.4579 13.4599 23.5511 14.611 24.3203C15.7622 25.0895 17.1155 25.5 18.5 25.5C20.3559 25.4981 22.1353 24.76 23.4476 23.4476C24.76 22.1353 25.4981 20.3559 25.5 18.5ZM8.34125 9.99208C8.56016 10.211 8.85708 10.334 9.16667 10.334C9.47626 10.334 9.77317 10.211 9.99208 9.99208C10.211 9.77317 10.334 9.47626 10.334 9.16667C10.334 8.85708 10.211 8.56016 9.99208 8.34125L7.65875 6.00792C7.43984 5.789 7.14292 5.66602 6.83333 5.66602C6.52374 5.66602 6.22683 5.789 6.00792 6.00792C5.789 6.22683 5.66602 6.52374 5.66602 6.83333C5.66602 7.14292 5.789 7.43984 6.00792 7.65875L8.34125 9.99208ZM8.34125 27.0079L6.00792 29.3412C5.789 29.5602 5.66602 29.8571 5.66602 30.1667C5.66602 30.4763 5.789 30.7732 6.00792 30.9921C6.22683 31.211 6.52374 31.334 6.83333 31.334C7.14292 31.334 7.43984 31.211 7.65875 30.9921L9.99208 28.6588C10.1005 28.5504 10.1865 28.4217 10.2451 28.28C10.3038 28.1384 10.334 27.9866 10.334 27.8333C10.334 27.68 10.3038 27.5282 10.2451 27.3866C10.1865 27.245 10.1005 27.1163 9.99208 27.0079C9.88369 26.8995 9.755 26.8135 9.61338 26.7549C9.47175 26.6962 9.31996 26.666 9.16667 26.666C9.01337 26.666 8.86158 26.6962 8.71995 26.7549C8.57833 26.8135 8.44965 26.8995 8.34125 27.0079ZM27.8333 10.3333C27.9866 10.3335 28.1384 10.3034 28.28 10.2448C28.4216 10.1863 28.5503 10.1004 28.6588 9.99208L30.9921 7.65875C31.211 7.43984 31.334 7.14292 31.334 6.83333C31.334 6.52374 31.211 6.22683 30.9921 6.00792C30.7732 5.789 30.4763 5.66602 30.1667 5.66602C29.8571 5.66602 29.5602 5.789 29.3412 6.00792L27.0079 8.34125C26.8446 8.50441 26.7333 8.71238 26.6882 8.93881C26.6431 9.16524 26.6662 9.39996 26.7546 9.61326C26.843 9.82655 26.9927 10.0088 27.1847 10.137C27.3767 10.2652 27.6025 10.3335 27.8333 10.3333ZM28.6588 27.0079C28.4398 26.789 28.1429 26.666 27.8333 26.666C27.5237 26.666 27.2268 26.789 27.0079 27.0079C26.789 27.2268 26.666 27.5237 26.666 27.8333C26.666 28.1429 26.789 28.4398 27.0079 28.6588L29.3412 30.9921C29.4496 31.1005 29.5783 31.1865 29.72 31.2451C29.8616 31.3038 30.0134 31.334 30.1667 31.334C30.32 31.334 30.4718 31.3038 30.6134 31.2451C30.755 31.1865 30.8837 31.1005 30.9921 30.9921C31.1005 30.8837 31.1865 30.755 31.2451 30.6134C31.3038 30.4718 31.334 30.32 31.334 30.1667C31.334 30.0134 31.3038 29.8616 31.2451 29.72C31.1865 29.5783 31.1005 29.4496 30.9921 29.3412L28.6588 27.0079ZM6.83333 18.5C6.83333 18.1906 6.71042 17.8938 6.49162 17.675C6.27283 17.4562 5.97609 17.3333 5.66667 17.3333H2.16667C1.85725 17.3333 1.5605 17.4562 1.34171 17.675C1.12292 17.8938 1 18.1906 1 18.5C1 18.8094 1.12292 19.1062 1.34171 19.325C1.5605 19.5438 1.85725 19.6667 2.16667 19.6667H5.66667C5.97609 19.6667 6.27283 19.5438 6.49162 19.325C6.71042 19.1062 6.83333 18.8094 6.83333 18.5ZM18.5 30.1667C18.1906 30.1667 17.8938 30.2896 17.675 30.5084C17.4562 30.7272 17.3333 31.0239 17.3333 31.3333V34.8333C17.3333 35.1427 17.4562 35.4395 17.675 35.6583C17.8938 35.8771 18.1906 36 18.5 36C18.8094 36 19.1062 35.8771 19.325 35.6583C19.5438 35.4395 19.6667 35.1427 19.6667 34.8333V31.3333C19.6667 31.0239 19.5438 30.7272 19.325 30.5084C19.1062 30.2896 18.8094 30.1667 18.5 30.1667ZM34.8333 17.3333H31.3333C31.0239 17.3333 30.7272 17.4562 30.5084 17.675C30.2896 17.8938 30.1667 18.1906 30.1667 18.5C30.1667 18.8094 30.2896 19.1062 30.5084 19.325C30.7272 19.5438 31.0239 19.6667 31.3333 19.6667H34.8333C35.1427 19.6667 35.4395 19.5438 35.6583 19.325C35.8771 19.1062 36 18.8094 36 18.5C36 18.1906 35.8771 17.8938 35.6583 17.675C35.4395 17.4562 35.1427 17.3333 34.8333 17.3333Z" fill="black"/>
</g>
<defs>
<clipPath id="clip0_96_164">
<rect width="35.5122" height="35.5122" fill="white"/>
</clipPath>
</defs>
</svg>
